<?xml version="1.0" encoding="utf-8"?>
<!-- Generator: Adobe Illustrator 16.0.0, SVG Export Plug-In . SVG Version: 6.00 Build 0)  -->
<!DOCTYPE svg PUBLIC "-//W3C//DTD SVG 1.1//EN" "http://www.w3.org/Graphics/SVG/1.1/DTD/svg11.dtd">
<svg version="1.1" id="Layer_1" xmlns="http://www.w3.org/2000/svg" xmlns:xlink="http://www.w3.org/1999/xlink" x="0px" y="0px"
	 width="461.479px" height="585.552px" viewBox="0 0 461.479 585.552" enable-background="new 0 0 461.479 585.552"
	 xml:space="preserve">
<g>
	<defs>
		<rect id="SVGID_1_" width="461.479" height="576.552"/>
	</defs>
	<clipPath id="SVGID_2_">
		<use xlink:href="#SVGID_1_"  overflow="visible"/>
	</clipPath>
	
		<circle clip-path="url(#SVGID_2_)" fill="none" stroke="#FFFFFF" stroke-width="7" stroke-miterlimit="10" cx="230.74" cy="230.738" r="225.478"/>
</g>
<polygon fill="#FAF7F2" points="286.521,303.01 286.521,296.287 186.303,296.287 186.303,218.566 273.11,218.566 273.11,211.841 
	186.303,211.841 186.303,135.366 282.979,135.366 282.979,128.641 179.217,128.641 179.217,303.01 "/>
<g>
	<defs>
		<rect id="SVGID_3_" width="461.479" height="576.552"/>
	</defs>
	<clipPath id="SVGID_4_">
		<use xlink:href="#SVGID_3_"  overflow="visible"/>
	</clipPath>
	<path clip-path="url(#SVGID_4_)" fill="#FAF7F2" d="M113.491,347.988h8.97V152.573c0-2.348-0.054-4.59-0.16-6.727
		c-0.11-2.133-0.27-4.375-0.479-6.728c0.64,0.857,1.28,1.657,1.922,2.403c0.641,0.75,1.171,1.552,1.601,2.402l17.621,23.065
		c14.736,19.436,29.362,38.552,43.888,57.343c14.521,18.797,29.151,37.912,43.889,57.343c18.148-23.916,36.361-47.623,54.62-71.117
		c18.26-23.491,36.361-47.303,54.3-71.439c-0.216,2.354-0.376,4.595-0.483,6.728c-0.108,2.137-0.157,4.379-0.157,6.727v55.102
		v140.313h8.969V113.49c-19.65,25.417-39.192,50.776-58.624,76.084c-19.437,25.308-38.978,50.671-58.624,76.084
		c-19.652-25.413-39.193-50.776-58.625-76.084c-19.437-25.308-38.978-50.667-58.625-76.084V347.988z"/>
	<path clip-path="url(#SVGID_4_)" fill="#FCF9F3" d="M315.079,541.451c1.253-2.918,2.951-5.459,5.096-7.629
		c2.144-2.17,4.663-3.892,7.558-5.171c2.891-1.274,5.974-1.914,9.252-1.914c3.277,0,6.374,0.64,9.292,1.914
		c2.914,1.279,5.458,3.001,7.628,5.171c2.168,2.17,3.878,4.711,5.132,7.629c1.253,2.915,1.879,6.013,1.879,9.289
		c0,3.278-0.639,6.363-1.913,9.257c-1.277,2.89-3.015,5.421-5.206,7.589c-2.195,2.17-4.749,3.88-7.666,5.134
		c-2.915,1.253-6.013,1.878-9.29,1.878s-6.35-0.625-9.218-1.878c-2.868-1.254-5.362-2.952-7.483-5.097
		c-2.12-2.145-3.807-4.664-5.06-7.557c-1.254-2.892-1.879-5.975-1.879-9.254C313.2,547.486,313.825,544.366,315.079,541.451
		 M313.2,560.791c1.347,3.133,3.192,5.867,5.53,8.205c2.336,2.337,5.072,4.183,8.205,5.53c3.134,1.35,6.482,2.025,10.049,2.025
		c3.567,0,6.929-0.676,10.087-2.025c3.156-1.348,5.902-3.193,8.242-5.53c2.338-2.338,4.192-5.072,5.566-8.205
		c1.373-3.133,2.062-6.484,2.062-10.051s-0.688-6.929-2.062-10.084c-1.374-3.156-3.229-5.904-5.566-8.246
		c-2.34-2.335-5.086-4.189-8.242-5.564c-3.158-1.373-6.52-2.061-10.087-2.061c-3.566,0-6.915,0.688-10.049,2.061
		c-3.133,1.375-5.869,3.229-8.205,5.564c-2.338,2.342-4.184,5.09-5.53,8.246c-1.352,3.155-2.027,6.518-2.027,10.084
		S311.849,557.658,313.2,560.791 M233.525,575.973h2.025v-44.102c0-0.53-0.012-1.037-0.037-1.519s-0.063-0.987-0.108-1.519
		c0.146,0.192,0.29,0.372,0.434,0.541c0.146,0.171,0.265,0.351,0.361,0.543l3.977,5.205c3.326,4.387,6.629,8.701,9.904,12.94
		c3.278,4.243,6.58,8.558,9.906,12.942c4.096-5.396,8.206-10.747,12.326-16.051c4.121-5.301,8.206-10.675,12.257-16.121
		c-0.05,0.531-0.088,1.037-0.109,1.519c-0.026,0.481-0.037,0.988-0.037,1.519v12.433v31.669h2.024v-52.924
		c-4.435,5.737-8.846,11.459-13.23,17.172c-4.387,5.711-8.798,11.437-13.23,17.169c-4.436-5.732-8.846-11.458-13.23-17.169
		c-4.386-5.713-8.797-11.435-13.231-17.172V575.973z M207.353,575.973v-1.952h-28.63v-22.556h24.799v-1.956h-24.799v-22.192h27.619
		v-1.954h-29.644v50.61H207.353z M97.025,575.973h2.024v-44.102c0-0.53-0.013-1.037-0.036-1.519
		c-0.025-0.481-0.062-0.987-0.108-1.519c0.144,0.192,0.29,0.372,0.433,0.541c0.145,0.171,0.264,0.351,0.363,0.543l3.975,5.205
		c3.325,4.387,6.626,8.701,9.905,12.94c3.277,4.243,6.58,8.558,9.906,12.942c4.097-5.396,8.206-10.747,12.327-16.051
		c4.122-5.301,8.206-10.675,12.256-16.121c-0.051,0.531-0.086,1.037-0.109,1.519c-0.024,0.481-0.037,0.988-0.037,1.519v12.433
		v31.669h2.023v-52.924c-4.434,5.737-8.843,11.459-13.23,17.172c-4.386,5.711-8.797,11.437-13.23,17.169
		c-4.435-5.732-8.846-11.458-13.231-17.169c-4.386-5.713-8.796-11.435-13.231-17.172V575.973z"/>
</g>
</svg>
