<?xml version="1.0" encoding="utf-8"?>
<!-- Generator: Adobe Illustrator 16.0.0, SVG Export Plug-In . SVG Version: 6.00 Build 0)  -->
<!DOCTYPE svg PUBLIC "-//W3C//DTD SVG 1.1//EN" "http://www.w3.org/Graphics/SVG/1.1/DTD/svg11.dtd">
<svg version="1.1" xmlns="http://www.w3.org/2000/svg" xmlns:xlink="http://www.w3.org/1999/xlink" x="0px" y="0px"
	 width="184.333px" height="62px" viewBox="0 0 184.333 62" enable-background="new 0 0 184.333 62" xml:space="preserve">
<g id="Capa_2" display="none">
	
		<image display="inline" overflow="visible" width="183" height="62" xlink:href="../New folder/MEMO-SITE-DEMO052115tra/Memo-docroot(2)/Memo-docroot/images/logo-top.png"  transform="matrix(1 0 0 1 1.3335 0)">
	</image>
</g>
<g id="Layer_1">
	<g>
		<defs>
			<rect id="SVGID_1_" x="1.333" width="61.375" height="76.68"/>
		</defs>
		<clipPath id="SVGID_2_">
			<use xlink:href="#SVGID_1_"  overflow="visible"/>
		</clipPath>
		
			<circle clip-path="url(#SVGID_2_)" fill="none" stroke="#FFFFFF" stroke-width="1.3994" stroke-miterlimit="10" cx="32.021" cy="30.688" r="29.988"/>
	</g>
	<polygon fill="#F6F2EB" points="39.44,40.3 39.44,39.405 26.111,39.405 26.111,29.069 37.656,29.069 37.656,28.174 26.111,28.174 
		26.111,18.004 38.969,18.004 38.969,17.108 25.169,17.108 25.169,40.3 	"/>
	<g>
		<defs>
			<rect id="SVGID_3_" x="1.333" width="61.375" height="76.68"/>
		</defs>
		<clipPath id="SVGID_4_">
			<use xlink:href="#SVGID_3_"  overflow="visible"/>
		</clipPath>
		<path clip-path="url(#SVGID_4_)" fill="#F6F2EB" d="M16.427,46.281h1.193V20.292c0-0.313-0.007-0.61-0.021-0.895
			c-0.015-0.284-0.036-0.582-0.064-0.895c0.085,0.113,0.17,0.221,0.256,0.319c0.085,0.1,0.156,0.207,0.213,0.319l2.343,3.067
			c1.96,2.585,3.905,5.128,5.837,7.627c1.931,2.5,3.877,5.042,5.837,7.626c2.414-3.181,4.836-6.334,7.264-9.458
			c2.429-3.125,4.836-6.291,7.222-9.501c-0.028,0.313-0.05,0.61-0.064,0.895s-0.021,0.582-0.021,0.895v7.328v18.661h1.193V15.095
			c-2.614,3.381-5.213,6.753-7.797,10.118c-2.585,3.366-5.184,6.739-7.797,10.119c-2.614-3.38-5.212-6.753-7.797-10.119
			c-2.584-3.365-5.184-6.737-7.797-10.118V46.281z"/>
	</g>
	<path fill="#F8F5ED" d="M165.666,24.958c0.467-1.083,1.1-2.032,1.897-2.839c0.799-0.81,1.737-1.449,2.815-1.924
		c1.075-0.479,2.224-0.715,3.444-0.715c1.222,0,2.373,0.235,3.461,0.715c1.085,0.475,2.031,1.114,2.841,1.924
		c0.806,0.807,1.442,1.756,1.909,2.839c0.467,1.085,0.7,2.241,0.7,3.461c0,1.223-0.239,2.368-0.713,3.445
		c-0.477,1.077-1.122,2.018-1.939,2.827c-0.816,0.807-1.768,1.447-2.853,1.912c-1.087,0.467-2.239,0.7-3.46,0.7
		c-1.222,0-2.364-0.233-3.433-0.7c-1.067-0.465-1.997-1.1-2.787-1.897c-0.79-0.799-1.417-1.737-1.884-2.813
		c-0.468-1.078-0.7-2.224-0.7-3.449C164.965,27.208,165.198,26.043,165.666,24.958 M164.965,32.16
		c0.502,1.17,1.189,2.188,2.06,3.057c0.869,0.872,1.889,1.559,3.055,2.059c1.168,0.503,2.415,0.755,3.743,0.755
		s2.58-0.252,3.756-0.755c1.174-0.5,2.2-1.187,3.07-2.059c0.869-0.869,1.56-1.887,2.072-3.057c0.511-1.165,0.767-2.415,0.767-3.741
		c0-1.328-0.256-2.581-0.767-3.757c-0.513-1.172-1.203-2.198-2.072-3.068c-0.87-0.868-1.896-1.56-3.07-2.074
		c-1.176-0.512-2.428-0.766-3.756-0.766s-2.575,0.254-3.743,0.766c-1.166,0.515-2.186,1.206-3.055,2.074
		c-0.87,0.87-1.558,1.896-2.06,3.068c-0.502,1.176-0.754,2.429-0.754,3.757C164.211,29.745,164.463,30.995,164.965,32.16
		 M135.297,37.814h0.753V21.393c0-0.197-0.004-0.386-0.014-0.566c-0.01-0.178-0.022-0.366-0.039-0.565
		c0.053,0.073,0.106,0.139,0.161,0.202c0.054,0.063,0.099,0.131,0.134,0.202l1.48,1.938c1.239,1.636,2.47,3.24,3.688,4.817
		c1.222,1.581,2.451,3.186,3.689,4.821c1.525-2.011,3.055-4.004,4.59-5.978s3.056-3.976,4.565-6.004
		c-0.02,0.199-0.032,0.388-0.042,0.565c-0.01,0.181-0.014,0.369-0.014,0.566v4.629v11.793h0.754V18.108
		c-1.65,2.136-3.295,4.266-4.927,6.393c-1.635,2.127-3.276,4.26-4.927,6.393c-1.651-2.133-3.294-4.266-4.927-6.393
		s-3.275-4.257-4.927-6.393V37.814z M125.551,37.814v-0.728H114.89v-8.4h9.234V27.96h-9.234v-8.267h10.284V18.97h-11.038v18.845
		H125.551z M84.468,37.814h0.755V21.393c0-0.197-0.006-0.386-0.014-0.566c-0.009-0.178-0.023-0.366-0.041-0.565
		c0.055,0.073,0.108,0.139,0.161,0.202c0.055,0.063,0.099,0.131,0.135,0.202l1.48,1.938c1.239,1.636,2.468,3.24,3.689,4.817
		c1.22,1.581,2.45,3.186,3.688,4.821c1.524-2.011,3.056-4.004,4.589-5.978c1.536-1.974,3.056-3.976,4.564-6.004
		c-0.018,0.199-0.03,0.388-0.04,0.565c-0.01,0.181-0.013,0.369-0.013,0.566v4.629v11.793h0.753V18.108
		c-1.651,2.136-3.293,4.266-4.927,6.393c-1.633,2.127-3.275,4.26-4.926,6.393c-1.652-2.133-3.295-4.266-4.927-6.393
		s-3.275-4.257-4.927-6.393V37.814z"/>
</g>
</svg>
